<svg xmlns="http://www.w3.org/2000/svg" viewBox="0 0 200 200" role="img" aria-label="Bad News Bears — annoyed">
  <circle cx="50" cy="55" r="22" fill="#1f2937" stroke="rgba(255,255,255,0.08)" stroke-width="1"></circle>
  <circle cx="150" cy="55" r="22" fill="#1f2937" stroke="rgba(255,255,255,0.08)" stroke-width="1"></circle>
  <circle cx="50" cy="55" r="9" fill="#0f172a"></circle>
  <circle cx="150" cy="55" r="9" fill="#0f172a"></circle>

  <circle cx="100" cy="105" r="62" fill="#1f2937" stroke="rgba(255,255,255,0.08)" stroke-width="1"></circle>
  <ellipse cx="78" cy="78" rx="30" ry="16" fill="rgba(255,255,255,0.035)" transform="rotate(-32 78 78)"></ellipse>

  <ellipse cx="100" cy="130" rx="32" ry="24" fill="#0f172a"></ellipse>
  <ellipse cx="100" cy="118" rx="8" ry="5.5" fill="#e5e7eb"></ellipse>
  <ellipse cx="98.5" cy="116.5" rx="2" ry="1.2" fill="rgba(255,255,255,0.4)"></ellipse>

  
  <path d="M 64 76 L 88 84" stroke="#e5e7eb" stroke-width="2.8" stroke-linecap="round"></path>
  <path d="M 112 84 L 136 76" stroke="#e5e7eb" stroke-width="2.8" stroke-linecap="round"></path>

  
  <path d="M 72 92 L 86 92" stroke="#e5e7eb" stroke-width="3" stroke-linecap="round"></path>
  <path d="M 114 92 L 128 92" stroke="#e5e7eb" stroke-width="3" stroke-linecap="round"></path>
  <circle cx="80" cy="92" r="1.6" fill="#60a5fa"></circle>
  <circle cx="122" cy="92" r="1.6" fill="#e5e7eb"></circle>

  
  <path d="M 90 142 Q 100 136 110 142" stroke="#e5e7eb" stroke-width="2.5" stroke-linecap="round" fill="none"></path>
</svg>